<svg xmlns="http://www.w3.org/2000/svg" viewBox="0 0 640 640" role="img" aria-labelledby="title desc">
  <title id="title">키보드 클릭</title>
  <desc id="desc">기계식 키보드 클릭 사운드를 표현한 이미지</desc>
  <rect width="640" height="640" rx="48" fill="#f2f5f8"/>
  <rect x="94" y="210" width="452" height="250" rx="38" fill="#17212b"/>
  <g fill="#fff">
    <rect x="136" y="252" width="58" height="42" rx="10"/>
    <rect x="212" y="252" width="58" height="42" rx="10"/>
    <rect x="288" y="252" width="58" height="42" rx="10"/>
    <rect x="364" y="252" width="58" height="42" rx="10"/>
    <rect x="440" y="252" width="58" height="42" rx="10"/>
    <rect x="136" y="318" width="58" height="42" rx="10"/>
    <rect x="212" y="318" width="58" height="42" rx="10"/>
    <rect x="288" y="318" width="58" height="42" rx="10"/>
    <rect x="364" y="318" width="58" height="42" rx="10"/>
    <rect x="440" y="318" width="58" height="42" rx="10"/>
    <rect x="176" y="384" width="288" height="42" rx="10"/>
  </g>
  <circle cx="504" cy="184" r="42" fill="#78b7ff"/>
  <path d="M494 184h20M504 174v20" stroke="#fff" stroke-width="10" stroke-linecap="round"/>
</svg>
